<svg width="448" height="89" viewBox="0 0 448 89" fill="none" xmlns="http://www.w3.org/2000/svg">
<path d="M37.4735 56.3712C35.9162 56.5691 34.911 56.892 34.4526 57.3503C33.937 57.866 33.6818 58.8503 33.6818 60.3087V80.9337C33.6818 82.4649 33.937 83.4701 34.4526 83.9545C34.911 84.4128 35.9162 84.741 37.4735 84.9337V87.7045H21.6401V84.9337C23.1922 84.741 24.2026 84.4128 24.661 83.9545C25.1714 83.4701 25.4318 82.4649 25.4318 80.9337V71.767H12.2443V80.9337C12.2443 82.4649 12.4995 83.4701 13.0151 83.9545C13.4735 84.4128 14.4787 84.741 16.036 84.9337V87.7045H0.202637V84.9337C1.75472 84.741 2.76514 84.4128 3.22347 83.9545C3.73389 83.4285 3.9943 82.4233 3.9943 80.9337V60.3087C3.9943 58.9233 3.73389 57.9337 3.22347 57.3503C2.76514 56.892 1.75472 56.5691 0.202637 56.3712V53.6003H16.036V56.3712C14.4787 56.5691 13.4735 56.892 13.0151 57.3503C12.4995 57.866 12.2443 58.8503 12.2443 60.3087V68.3087H25.4318V60.3087C25.4318 58.8503 25.1714 57.866 24.661 57.3503C24.2026 56.892 23.1922 56.5691 21.6401 56.3712V53.6003H37.4735V56.3712Z" fill="#38B38E"/>
<path d="M58.1767 52.9128C62.8851 52.9128 66.8122 54.4701 69.9684 57.5795C73.3538 60.8712 75.0517 65.0795 75.0517 70.2045C75.0517 72.4858 74.7028 74.6524 74.0101 76.7045C73.3278 78.7462 72.3538 80.5326 71.0934 82.0587C67.5517 86.2826 63.0153 88.392 57.4892 88.392C52.4892 88.392 48.3122 86.5743 44.9684 82.9337C42.0778 79.7826 40.6351 75.767 40.6351 70.892C40.6351 68.517 41.0101 66.2983 41.7601 64.2253C42.5101 62.142 43.6142 60.2774 45.0726 58.6212C46.6976 56.7618 48.6247 55.3451 50.8642 54.3712C53.1142 53.4024 55.5517 52.9128 58.1767 52.9128ZM57.8017 55.9337C55.1351 55.9337 53.1038 57.0951 51.7184 59.4128C50.3434 61.7358 49.6559 65.1733 49.6559 69.7253C49.6559 74.7983 50.3694 78.6628 51.8017 81.3295C53.2288 84.0274 55.2809 85.3712 57.9476 85.3712C63.333 85.3712 66.0309 80.7566 66.0309 71.517C66.0309 66.4649 65.3122 62.616 63.8851 59.9753C62.4788 57.2826 60.4528 55.9337 57.8017 55.9337Z" fill="#38B38E"/>
<path d="M119.762 56.3712C118.762 56.3712 117.955 56.6837 117.346 57.3087C116.747 57.9233 116.45 58.7462 116.45 59.7878C116.45 60.2045 116.497 60.7566 116.596 61.4337L119.471 80.2462C119.705 81.9701 120.127 83.1576 120.742 83.8087C121.367 84.4233 122.325 84.7983 123.617 84.9337V87.7045H108.179V84.9337H108.471C109.471 84.9337 110.21 84.6993 110.7 84.2253C111.184 83.7566 111.429 83.0118 111.429 81.9962C111.429 81.2878 111.367 80.6108 111.242 79.9545L108.95 64.6628L101.346 82.8295C100.497 84.8712 99.9135 86.4962 99.5958 87.7045H97.0125C96.8875 86.8295 96.252 84.866 95.1166 81.8087L88.5333 64.6628L85.2625 80.0587C85.0385 81.1316 84.9291 81.8608 84.9291 82.2462C84.9291 83.1212 85.1895 83.767 85.7208 84.1837C86.2625 84.5899 87.2 84.8399 88.5333 84.9337V87.7045H77.95V84.9337C79.0333 84.892 79.8562 84.5743 80.4291 83.9753C80.9968 83.3816 81.4291 82.4128 81.7208 81.0795L85.9083 61.2045L85.9916 60.6212C86.127 60.0951 86.2 59.6993 86.2 59.4337C86.2 58.6003 85.8302 57.9128 85.0958 57.3712C84.3718 56.8295 83.3562 56.4962 82.0541 56.3712V53.6003H93.9916C94.0177 55.8399 94.3927 57.8816 95.1166 59.7253L101.012 75.3295L107.637 59.3503C108.148 58.142 108.455 56.2253 108.554 53.6003H120.054V56.3712H119.762Z" fill="#38B38E"/>
<path d="M150.511 60.6212C149.855 59.0951 148.912 57.9858 147.678 57.2878C146.438 56.5795 144.834 56.2253 142.865 56.2253C141.074 56.2253 139.886 56.3608 139.303 56.6212C138.787 56.8451 138.532 57.5118 138.532 58.6212V68.0587H142.136C143.688 68.0587 144.876 67.7462 145.699 67.1212C146.532 66.4858 147.043 65.4701 147.24 64.0795H150.032V75.4337H147.24C147.115 74.0066 146.615 72.9076 145.74 72.142C144.865 71.3816 143.662 70.9962 142.136 70.9962H138.532V80.3503C138.532 81.8399 138.834 82.892 139.449 83.517C140.058 84.1316 141.209 84.4337 142.907 84.4337C145.084 84.4337 147.053 83.9337 148.803 82.9337C150.553 81.9233 151.996 80.4545 153.136 78.5378H155.824L153.824 87.7045H126.345V84.9337C127.897 84.741 128.907 84.4128 129.365 83.9545C129.876 83.4285 130.136 82.4233 130.136 80.9337V60.3087C130.136 58.9233 129.876 57.9337 129.365 57.3503C128.907 56.892 127.897 56.5691 126.345 56.3712V53.6003H153.136V60.6212H150.511Z" fill="#38B38E"/>
<path d="M183.158 53.642C187.544 53.642 190.908 54.5066 193.241 56.2253C195.575 57.9493 196.741 60.4232 196.741 63.642C196.741 66.3399 195.684 68.5586 193.575 70.3086C191.502 72.0066 188.762 72.8503 185.346 72.8503C184.247 72.8503 183.544 72.7826 183.241 72.642C182.991 72.4909 182.866 72.1003 182.866 71.4753V70.7045C182.866 70.2461 183.169 69.9701 183.783 69.8711C184.241 69.8451 184.747 69.7618 185.304 69.6211C186.564 69.3034 187.497 68.6524 188.096 67.6628C188.689 66.6628 188.991 65.2878 188.991 63.5378C188.991 59.0274 187.012 56.767 183.054 56.767C182.346 56.767 181.872 56.8451 181.637 56.9961C181.413 57.1368 181.304 57.4128 181.304 57.8295V80.9336C181.304 82.3659 181.58 83.3607 182.137 83.9128C182.747 84.4545 183.767 84.7774 185.2 84.8711V87.7045H169.366V84.8711C170.794 84.7774 171.804 84.4701 172.387 83.9545C172.898 83.4284 173.158 82.4232 173.158 80.9336V60.2253C173.158 58.8243 172.898 57.8659 172.387 57.3503C171.929 56.892 170.919 56.5691 169.366 56.3711V53.642H183.158Z" fill="#38B38E"/>
<path d="M213.887 53.6003C216.72 53.6003 218.835 53.7618 220.241 54.0795C221.866 54.4962 223.163 55.0691 224.137 55.7878C226.637 57.5378 227.887 59.8451 227.887 62.7045C227.887 64.7201 227.267 66.4337 226.033 67.8503C224.793 69.267 223.075 70.2462 220.866 70.7878L227.304 80.7462C228.106 81.9701 228.887 82.9076 229.637 83.5587C230.387 84.2149 231.2 84.6733 232.075 84.9337V87.7045H223.304C222.554 87.7045 222.08 87.5118 221.887 87.1212L213.158 72.4545H211.658V80.7462C211.658 82.4024 211.913 83.4701 212.429 83.9545C212.955 84.4701 213.96 84.7983 215.45 84.9337V87.7045H199.72V84.9337C201.273 84.741 202.283 84.4128 202.741 83.9545C203.252 83.4285 203.512 82.3608 203.512 80.7462V60.3087C203.512 58.9233 203.252 57.9337 202.741 57.3503C202.283 56.892 201.273 56.5691 199.72 56.3712V53.6003H213.887ZM212.929 56.767C212.08 56.767 211.658 57.1108 211.658 57.7878V69.3295H211.804C212.22 69.4024 212.668 69.4337 213.158 69.4337C215.168 69.4337 216.7 68.8868 217.741 67.7878C218.783 66.6785 219.304 65.0326 219.304 62.8503C219.304 60.767 218.783 59.2358 217.741 58.2462C216.7 57.2618 215.095 56.767 212.929 56.767Z" fill="#38B38E"/>
<path d="M251.994 52.9128C256.702 52.9128 260.629 54.4701 263.786 57.5795C267.171 60.8712 268.869 65.0795 268.869 70.2045C268.869 72.4858 268.52 74.6524 267.827 76.7045C267.145 78.7462 266.171 80.5326 264.911 82.0587C261.369 86.2826 256.833 88.392 251.307 88.392C246.307 88.392 242.129 86.5743 238.786 82.9337C235.895 79.7826 234.452 75.767 234.452 70.892C234.452 68.517 234.827 66.2983 235.577 64.2253C236.327 62.142 237.432 60.2774 238.89 58.6212C240.515 56.7618 242.442 55.3451 244.682 54.3712C246.932 53.4024 249.369 52.9128 251.994 52.9128ZM251.619 55.9337C248.952 55.9337 246.921 57.0951 245.536 59.4128C244.161 61.7358 243.473 65.1733 243.473 69.7253C243.473 74.7983 244.187 78.6628 245.619 81.3295C247.046 84.0274 249.098 85.3712 251.765 85.3712C257.15 85.3712 259.848 80.7566 259.848 71.517C259.848 66.4649 259.129 62.616 257.702 59.9753C256.296 57.2826 254.27 55.9337 251.619 55.9337Z" fill="#38B38E"/>
<path d="M313.58 56.3712C312.58 56.3712 311.773 56.6837 311.163 57.3087C310.564 57.9233 310.267 58.7462 310.267 59.7878C310.267 60.2045 310.314 60.7566 310.413 61.4337L313.288 80.2462C313.523 81.9701 313.944 83.1576 314.559 83.8087C315.184 84.4233 316.142 84.7983 317.434 84.9337V87.7045H301.997V84.9337H302.288C303.288 84.9337 304.028 84.6993 304.517 84.2253C305.002 83.7566 305.247 83.0118 305.247 81.9962C305.247 81.2878 305.184 80.6108 305.059 79.9545L302.767 64.6628L295.163 82.8295C294.314 84.8712 293.731 86.4962 293.413 87.7045H290.83C290.705 86.8295 290.069 84.866 288.934 81.8087L282.351 64.6628L279.08 80.0587C278.856 81.1316 278.747 81.8608 278.747 82.2462C278.747 83.1212 279.007 83.767 279.538 84.1837C280.08 84.5899 281.017 84.8399 282.351 84.9337V87.7045H271.767V84.9337C272.851 84.892 273.674 84.5743 274.247 83.9753C274.814 83.3816 275.247 82.4128 275.538 81.0795L279.726 61.2045L279.809 60.6212C279.944 60.0951 280.017 59.6993 280.017 59.4337C280.017 58.6003 279.648 57.9128 278.913 57.3712C278.189 56.8295 277.174 56.4962 275.872 56.3712V53.6003H287.809C287.835 55.8399 288.21 57.8816 288.934 59.7253L294.83 75.3295L301.455 59.3503C301.965 58.142 302.273 56.2253 302.372 53.6003H313.872V56.3712H313.58Z" fill="#38B38E"/>
<path d="M333.954 53.642C338.339 53.642 341.704 54.5066 344.037 56.2253C346.37 57.9493 347.537 60.4232 347.537 63.642C347.537 66.3399 346.48 68.5586 344.37 70.3086C342.297 72.0066 339.558 72.8503 336.141 72.8503C335.042 72.8503 334.339 72.7826 334.037 72.642C333.787 72.4909 333.662 72.1003 333.662 71.4753V70.7045C333.662 70.2461 333.964 69.9701 334.579 69.8711C335.037 69.8451 335.542 69.7618 336.099 69.6211C337.36 69.3034 338.292 68.6524 338.891 67.6628C339.485 66.6628 339.787 65.2878 339.787 63.5378C339.787 59.0274 337.808 56.767 333.849 56.767C333.141 56.767 332.667 56.8451 332.433 56.9961C332.209 57.1368 332.099 57.4128 332.099 57.8295V80.9336C332.099 82.3659 332.376 83.3607 332.933 83.9128C333.542 84.4545 334.563 84.7774 335.995 84.8711V87.7045H320.162V84.8711C321.589 84.7774 322.599 84.4701 323.183 83.9545C323.693 83.4284 323.954 82.4232 323.954 80.9336V60.2253C323.954 58.8243 323.693 57.8659 323.183 57.3503C322.724 56.892 321.714 56.5691 320.162 56.3711V53.642H333.954Z" fill="#38B38E"/>
<path d="M382.62 62.8087C382.063 60.5587 381.224 58.9858 380.099 58.0795C378.959 57.1368 377.287 56.6628 375.078 56.6628H371.953V80.6003C371.953 82.0587 372.099 83.0326 372.391 83.517C373.042 84.5899 374.558 85.1212 376.933 85.1212H377.224V87.7045H358.308V85.1212H358.599C360.974 85.1212 362.485 84.5899 363.141 83.517C363.433 83.0326 363.578 82.0587 363.578 80.6003V56.6628H360.203C358.328 56.6628 356.834 57.1212 355.724 58.0378C354.683 58.9441 353.787 60.5326 353.037 62.8087H350.37L351.391 53.6003H384.433L385.203 62.8087H382.62Z" fill="#38B38E"/>
<mask id="mask0_55_105" style="mask-type:luminance" maskUnits="userSpaceOnUse" x="401" y="68" width="33" height="7">
<path d="M401.333 68H433.333V74.6667H401.333V68Z" fill="white"/>
</mask>
<g mask="url(#mask0_55_105)">
<mask id="mask1_55_105" style="mask-type:luminance" maskUnits="userSpaceOnUse" x="401" y="68" width="32" height="6">
<path d="M431.078 73.4166H402.958C402.135 73.4166 401.469 72.75 401.469 71.9323V70.4427C401.469 69.625 402.135 68.9635 402.958 68.9635H431.078C431.901 68.9635 432.573 69.625 432.573 70.4427V71.9323C432.573 72.7552 431.901 73.4166 431.078 73.4166Z" fill="white"/>
</mask>
<g mask="url(#mask1_55_105)">
<path d="M401.469 68.9635V73.4166H432.573V68.9635H401.469Z" fill="url(#paint0_linear_55_105)"/>
</g>
</g>
<mask id="mask2_55_105" style="mask-type:luminance" maskUnits="userSpaceOnUse" x="406" y="74" width="22" height="6">
<path d="M406.667 74.6666H428V80H406.667V74.6666Z" fill="white"/>
</mask>
<g mask="url(#mask2_55_105)">
<mask id="mask3_55_105" style="mask-type:luminance" maskUnits="userSpaceOnUse" x="407" y="75" width="20" height="6">
<path d="M425.307 80.0051H408.729C407.906 80.0051 407.24 79.3437 407.24 78.526V77.0364C407.24 76.2187 407.906 75.552 408.729 75.552H425.307C426.13 75.552 426.797 76.2187 426.797 77.0364V78.526C426.797 79.3437 426.13 80.0051 425.307 80.0051Z" fill="white"/>
</mask>
<g mask="url(#mask3_55_105)">
<path d="M407.24 75.552V79.9999H426.797V75.552H407.24Z" fill="url(#paint1_linear_55_105)"/>
</g>
</g>
<path d="M415.698 32.9427H411.724C411.536 32.9427 411.38 32.7917 411.38 32.599V28.6563C411.38 28.4688 411.536 28.3177 411.724 28.3177H415.698C415.891 28.3177 416.047 28.4688 416.047 28.6563V32.599C416.047 32.7917 415.891 32.9427 415.698 32.9427Z" fill="#38B38E"/>
<path d="M421.964 32.9427H417.99C417.802 32.9427 417.646 32.7917 417.646 32.599V28.6563C417.646 28.4688 417.802 28.3177 417.99 28.3177H421.964C422.156 28.3177 422.307 28.4688 422.307 28.6563V32.599C422.307 32.7917 422.156 32.9427 421.964 32.9427Z" fill="#38B38E"/>
<path d="M415.698 39.4427H411.724C411.536 39.4427 411.38 39.2917 411.38 39.1042V35.1615C411.38 34.974 411.536 34.8177 411.724 34.8177H415.698C415.891 34.8177 416.047 34.974 416.047 35.1615V39.1042C416.047 39.2917 415.891 39.4427 415.698 39.4427Z" fill="#38B38E"/>
<path d="M421.964 39.4427H417.99C417.802 39.4427 417.646 39.2917 417.646 39.1042V35.1615C417.646 34.974 417.802 34.8177 417.99 34.8177H421.964C422.156 34.8177 422.307 34.974 422.307 35.1615V39.1042C422.307 39.2917 422.156 39.4427 421.964 39.4427Z" fill="#38B38E"/>
<mask id="mask4_55_105" style="mask-type:luminance" maskUnits="userSpaceOnUse" x="386" y="0" width="62" height="67">
<path d="M386.24 0H448V66.6667H386.24V0Z" fill="white"/>
</mask>
<g mask="url(#mask4_55_105)">
<path d="M439.01 8.95834C433.068 3.14584 425.198 0.00521673 416.844 0.125009C408.719 0.234383 401.042 3.5573 395.219 9.48439C389.401 15.4063 386.25 23.1094 386.344 31.1719C386.448 40.3854 390.651 48.9427 397.885 54.724V57.1875C397.885 62.3854 402.13 66.5938 407.365 66.5938H427.203C432.438 66.5938 436.682 62.3854 436.682 57.1875V53.8438C436.682 52.8334 435.859 52.0156 434.844 52.0156H433.073C432.057 52.0156 431.234 52.8334 431.234 53.8438V57.099C431.234 57.125 431.234 57.1563 431.24 57.1875H431.234C431.234 59.3906 429.427 61.1875 427.203 61.1875H407.37C405.141 61.1875 403.339 59.3959 403.339 57.1875V54.2813C403.339 52.8906 402.708 51.6042 401.609 50.7552C395.458 45.9896 391.885 38.8281 391.792 31.1094C391.635 17.4323 403.146 5.71876 416.922 5.53126C423.807 5.44793 430.292 8.02084 435.182 12.8073C440.083 17.599 442.776 23.9896 442.776 30.8125C442.776 34.5052 441.969 38.1302 440.422 41.4427C440.083 42.1719 439.344 42.625 438.536 42.625H408.844C408.281 42.625 407.828 42.1771 407.828 41.6198V27.9219C407.828 27.4896 408.01 27.0781 408.328 26.7813L416.125 19.599C416.448 19.3021 416.953 19.3073 417.271 19.6146L426.172 28.2188C426.438 28.4792 426.797 28.6198 427.172 28.6198H432.214C433.01 28.6198 433.406 27.6615 432.833 27.1094L417.365 12.1511C417.047 11.8438 416.542 11.8386 416.214 12.1354L407.828 19.8646V17.9792H402.375V24.8854L397.802 29.0938C397.411 29.4583 397.193 29.9583 397.193 30.4896V32.3594C397.193 32.6823 397.453 32.9375 397.776 32.9375H402.375V44.6406C402.375 46.5104 403.906 48.0313 405.797 48.0313H441.615C442.443 48.0313 443.208 47.6042 443.635 46.9063L443.74 46.7344C446.677 41.9479 448.229 36.4375 448.229 30.8073C448.229 22.5365 444.958 14.7708 439.01 8.95834Z" fill="#008D93"/>
</g>
<mask id="mask5_55_105" style="mask-type:luminance" maskUnits="userSpaceOnUse" x="396" y="10" width="40" height="40">
<path d="M396 10.6666H436V49.3333H396V10.6666Z" fill="white"/>
</mask>
<g mask="url(#mask5_55_105)">
<mask id="mask6_55_105" style="mask-type:luminance" maskUnits="userSpaceOnUse" x="397" y="11" width="39" height="38">
<path d="M408.844 42.6301C408.281 42.6301 407.828 42.177 407.828 41.6197V27.9218C407.828 27.4895 408.01 27.078 408.328 26.7812L416.125 19.5989C416.448 19.302 416.953 19.3072 417.271 19.6145L426.172 28.2187C426.438 28.4791 426.797 28.6197 427.172 28.6197H432.214C433.01 28.6197 433.406 27.6614 432.833 27.1093L417.365 12.1509C417.047 11.8437 416.542 11.8384 416.214 12.1353L407.828 19.8645V17.9791H402.375V24.8853L397.802 29.0937C397.411 29.4582 397.193 29.9582 397.193 30.4895V32.3593C397.193 32.6822 397.453 32.9374 397.776 32.9374H402.375V44.6405C402.375 46.5155 403.906 48.0312 405.797 48.0312H432.552C433.411 46.2082 434.411 44.4634 435.333 42.6249H408.844V42.6301Z" fill="white"/>
</mask>
<g mask="url(#mask6_55_105)">
<path d="M397.193 11.8385V48.0312H435.333V11.8385H397.193Z" fill="url(#paint2_linear_55_105)"/>
</g>
</g>
<defs>
<linearGradient id="paint0_linear_55_105" x1="401.466" y1="71.1893" x2="432.572" y2="71.1893" gradientUnits="userSpaceOnUse">
<stop stop-color="#38B38E"/>
<stop offset="0.25" stop-color="#38B38E"/>
<stop offset="0.3125" stop-color="#38B38E"/>
<stop offset="0.328125" stop-color="#38B38E"/>
<stop offset="0.335938" stop-color="#38B38E"/>
<stop offset="0.34375" stop-color="#37B38E"/>
<stop offset="0.351562" stop-color="#37B28E"/>
<stop offset="0.359375" stop-color="#36B28E"/>
<stop offset="0.367188" stop-color="#35B18E"/>
<stop offset="0.375" stop-color="#35B18E"/>
<stop offset="0.382812" stop-color="#34B08E"/>
<stop offset="0.390625" stop-color="#33B08E"/>
<stop offset="0.398438" stop-color="#32AF8F"/>
<stop offset="0.40625" stop-color="#32AF8F"/>
<stop offset="0.414062" stop-color="#31AE8F"/>
<stop offset="0.421875" stop-color="#30AE8F"/>
<stop offset="0.429688" stop-color="#30AD8F"/>
<stop offset="0.4375" stop-color="#2FAD8F"/>
<stop offset="0.445312" stop-color="#2EAC8F"/>
<stop offset="0.453125" stop-color="#2DAC8F"/>
<stop offset="0.460938" stop-color="#2DAB8F"/>
<stop offset="0.46875" stop-color="#2CAB8F"/>
<stop offset="0.476562" stop-color="#2BAA8F"/>
<stop offset="0.484375" stop-color="#2BAA8F"/>
<stop offset="0.492187" stop-color="#2AA98F"/>
<stop offset="0.5" stop-color="#29A98F"/>
<stop offset="0.507812" stop-color="#29A88F"/>
<stop offset="0.515625" stop-color="#28A88F"/>
<stop offset="0.523438" stop-color="#27A78F"/>
<stop offset="0.53125" stop-color="#26A790"/>
<stop offset="0.539063" stop-color="#26A790"/>
<stop offset="0.546875" stop-color="#25A690"/>
<stop offset="0.554688" stop-color="#24A690"/>
<stop offset="0.5625" stop-color="#24A590"/>
<stop offset="0.570312" stop-color="#23A590"/>
<stop offset="0.578125" stop-color="#22A490"/>
<stop offset="0.585938" stop-color="#21A490"/>
<stop offset="0.59375" stop-color="#21A390"/>
<stop offset="0.601562" stop-color="#20A390"/>
<stop offset="0.609375" stop-color="#1FA290"/>
<stop offset="0.617188" stop-color="#1FA290"/>
<stop offset="0.625" stop-color="#1EA190"/>
<stop offset="0.632812" stop-color="#1DA190"/>
<stop offset="0.640625" stop-color="#1CA090"/>
<stop offset="0.648437" stop-color="#1CA090"/>
<stop offset="0.65625" stop-color="#1B9F91"/>
<stop offset="0.664062" stop-color="#1A9F91"/>
<stop offset="0.671875" stop-color="#1A9E91"/>
<stop offset="0.679687" stop-color="#199E91"/>
<stop offset="0.6875" stop-color="#189D91"/>
<stop offset="0.695312" stop-color="#189D91"/>
<stop offset="0.703125" stop-color="#179C91"/>
<stop offset="0.710937" stop-color="#169C91"/>
<stop offset="0.71875" stop-color="#159B91"/>
<stop offset="0.726562" stop-color="#159B91"/>
<stop offset="0.734375" stop-color="#149B91"/>
<stop offset="0.742188" stop-color="#139A91"/>
<stop offset="0.75" stop-color="#139A91"/>
<stop offset="0.757812" stop-color="#129991"/>
<stop offset="0.765625" stop-color="#119991"/>
<stop offset="0.773438" stop-color="#109891"/>
<stop offset="0.78125" stop-color="#109892"/>
<stop offset="0.789063" stop-color="#0F9792"/>
<stop offset="0.796875" stop-color="#0E9792"/>
<stop offset="0.804688" stop-color="#0E9692"/>
<stop offset="0.8125" stop-color="#0D9692"/>
<stop offset="0.820313" stop-color="#0C9592"/>
<stop offset="0.828125" stop-color="#0B9592"/>
<stop offset="0.835938" stop-color="#0B9492"/>
<stop offset="0.84375" stop-color="#0A9492"/>
<stop offset="0.851563" stop-color="#099392"/>
<stop offset="0.859375" stop-color="#099392"/>
<stop offset="0.867188" stop-color="#089292"/>
<stop offset="0.875" stop-color="#079292"/>
<stop offset="0.882812" stop-color="#079192"/>
<stop offset="0.890625" stop-color="#069192"/>
<stop offset="0.898438" stop-color="#059092"/>
<stop offset="0.90625" stop-color="#049092"/>
<stop offset="0.914062" stop-color="#048F93"/>
<stop offset="0.921875" stop-color="#038F93"/>
<stop offset="0.929687" stop-color="#028F93"/>
<stop offset="0.9375" stop-color="#028E93"/>
<stop offset="0.945312" stop-color="#018E93"/>
<stop offset="0.953125" stop-color="#008D93"/>
<stop offset="0.96875" stop-color="#008D93"/>
<stop offset="1" stop-color="#008D93"/>
</linearGradient>
<linearGradient id="paint1_linear_55_105" x1="407.238" y1="77.7801" x2="426.799" y2="77.7801" gradientUnits="userSpaceOnUse">
<stop stop-color="#38B38E"/>
<stop offset="0.25" stop-color="#38B38E"/>
<stop offset="0.265625" stop-color="#37B28E"/>
<stop offset="0.28125" stop-color="#36B18E"/>
<stop offset="0.296875" stop-color="#35B18E"/>
<stop offset="0.3125" stop-color="#34B08E"/>
<stop offset="0.328125" stop-color="#33B08E"/>
<stop offset="0.34375" stop-color="#32AF8F"/>
<stop offset="0.359375" stop-color="#31AE8F"/>
<stop offset="0.375" stop-color="#30AE8F"/>
<stop offset="0.390625" stop-color="#30AD8F"/>
<stop offset="0.40625" stop-color="#2FAD8F"/>
<stop offset="0.421875" stop-color="#2EAC8F"/>
<stop offset="0.4375" stop-color="#2DAB8F"/>
<stop offset="0.453125" stop-color="#2CAB8F"/>
<stop offset="0.46875" stop-color="#2BAA8F"/>
<stop offset="0.484375" stop-color="#2AAA8F"/>
<stop offset="0.5" stop-color="#29A98F"/>
<stop offset="0.515625" stop-color="#28A88F"/>
<stop offset="0.53125" stop-color="#28A88F"/>
<stop offset="0.546875" stop-color="#27A790"/>
<stop offset="0.5625" stop-color="#26A790"/>
<stop offset="0.578125" stop-color="#25A690"/>
<stop offset="0.59375" stop-color="#24A590"/>
<stop offset="0.609375" stop-color="#23A590"/>
<stop offset="0.625" stop-color="#22A490"/>
<stop offset="0.640625" stop-color="#21A490"/>
<stop offset="0.65625" stop-color="#20A390"/>
<stop offset="0.671875" stop-color="#20A290"/>
<stop offset="0.6875" stop-color="#1FA290"/>
<stop offset="0.703125" stop-color="#1EA190"/>
<stop offset="0.71875" stop-color="#1DA190"/>
<stop offset="0.734375" stop-color="#1CA090"/>
<stop offset="0.75" stop-color="#1B9F91"/>
<stop offset="0.765625" stop-color="#1A9F91"/>
<stop offset="0.78125" stop-color="#199E91"/>
<stop offset="0.796875" stop-color="#189E91"/>
<stop offset="0.8125" stop-color="#179D91"/>
<stop offset="0.828125" stop-color="#179C91"/>
<stop offset="0.84375" stop-color="#169C91"/>
<stop offset="0.859375" stop-color="#159B91"/>
<stop offset="0.875" stop-color="#149B91"/>
<stop offset="0.890625" stop-color="#139A91"/>
<stop offset="0.90625" stop-color="#129991"/>
<stop offset="0.921875" stop-color="#119991"/>
<stop offset="0.9375" stop-color="#109891"/>
<stop offset="0.953125" stop-color="#0F9792"/>
<stop offset="0.96875" stop-color="#0F9792"/>
<stop offset="0.984375" stop-color="#0E9692"/>
<stop offset="1" stop-color="#0D9692"/>
</linearGradient>
<linearGradient id="paint2_linear_55_105" x1="394.383" y1="14.8261" x2="432.713" y2="50.8219" gradientUnits="userSpaceOnUse">
<stop stop-color="#38B38E"/>
<stop offset="0.471234" stop-color="#38B38E"/>
<stop offset="0.5" stop-color="#38B38E"/>
<stop offset="0.528766" stop-color="#38B38E"/>
<stop offset="0.625" stop-color="#38B38E"/>
<stop offset="0.640625" stop-color="#38B38E"/>
<stop offset="0.648438" stop-color="#38B38E"/>
<stop offset="0.652344" stop-color="#37B28E"/>
<stop offset="0.65625" stop-color="#36B28E"/>
<stop offset="0.660156" stop-color="#35B18E"/>
<stop offset="0.664062" stop-color="#34B08E"/>
<stop offset="0.667969" stop-color="#33B08E"/>
<stop offset="0.671875" stop-color="#32AF8F"/>
<stop offset="0.675781" stop-color="#31AE8F"/>
<stop offset="0.679688" stop-color="#30AD8F"/>
<stop offset="0.683594" stop-color="#2FAD8F"/>
<stop offset="0.6875" stop-color="#2EAC8F"/>
<stop offset="0.691406" stop-color="#2DAB8F"/>
<stop offset="0.695312" stop-color="#2CAB8F"/>
<stop offset="0.699219" stop-color="#2BAA8F"/>
<stop offset="0.703125" stop-color="#2AA98F"/>
<stop offset="0.707031" stop-color="#29A98F"/>
<stop offset="0.710938" stop-color="#28A88F"/>
<stop offset="0.714844" stop-color="#27A790"/>
<stop offset="0.71875" stop-color="#26A790"/>
<stop offset="0.722656" stop-color="#25A690"/>
<stop offset="0.726562" stop-color="#24A590"/>
<stop offset="0.730469" stop-color="#23A490"/>
<stop offset="0.734375" stop-color="#22A490"/>
<stop offset="0.738281" stop-color="#21A390"/>
<stop offset="0.742188" stop-color="#20A290"/>
<stop offset="0.746094" stop-color="#1FA290"/>
<stop offset="0.75" stop-color="#1EA190"/>
<stop offset="0.753906" stop-color="#1DA090"/>
<stop offset="0.757813" stop-color="#1CA090"/>
<stop offset="0.761719" stop-color="#1B9F91"/>
<stop offset="0.765625" stop-color="#1A9E91"/>
<stop offset="0.769531" stop-color="#189E91"/>
<stop offset="0.773438" stop-color="#179D91"/>
<stop offset="0.777344" stop-color="#169C91"/>
<stop offset="0.78125" stop-color="#159C91"/>
<stop offset="0.785156" stop-color="#149B91"/>
<stop offset="0.789063" stop-color="#139A91"/>
<stop offset="0.792969" stop-color="#129991"/>
<stop offset="0.796875" stop-color="#119991"/>
<stop offset="0.800781" stop-color="#109891"/>
<stop offset="0.804688" stop-color="#0F9792"/>
<stop offset="0.808594" stop-color="#0E9792"/>
<stop offset="0.8125" stop-color="#0D9692"/>
<stop offset="0.816406" stop-color="#0C9592"/>
<stop offset="0.820313" stop-color="#0B9592"/>
<stop offset="0.824219" stop-color="#0A9492"/>
<stop offset="0.828125" stop-color="#099392"/>
<stop offset="0.832031" stop-color="#089392"/>
<stop offset="0.835938" stop-color="#079292"/>
<stop offset="0.839844" stop-color="#069192"/>
<stop offset="0.84375" stop-color="#059092"/>
<stop offset="0.847656" stop-color="#049093"/>
<stop offset="0.851563" stop-color="#038F93"/>
<stop offset="0.855469" stop-color="#028E93"/>
<stop offset="0.859375" stop-color="#018E93"/>
<stop offset="0.863281" stop-color="#018D93"/>
<stop offset="0.867188" stop-color="#008D93"/>
<stop offset="0.875" stop-color="#008D93"/>
<stop offset="1" stop-color="#008D93"/>
</linearGradient>
</defs>
</svg>
